<svg width="21" height="18" viewBox="0 0 21 18" fill="none" xmlns="http://www.w3.org/2000/svg">
<path d="M19.0607 2.54102H16.2861C15.7596 1.0638 14.3634 0 12.7064 0C11.0493 0 9.65299 1.06383 9.12783 2.54102L1.26993 2.54222C0.568254 2.54222 0 3.11166 0 3.81334C0 4.51502 0.568254 5.08327 1.26993 5.08327H9.12783C9.65321 6.56049 11.0494 7.62429 12.7064 7.62429C14.3635 7.62429 15.7597 6.56046 16.2849 5.08208H19.0595C19.7611 5.08208 20.3306 4.51264 20.3306 3.81096V3.81215C20.3306 3.11047 19.7623 2.54102 19.0607 2.54102ZM12.7063 5.08324C12.0058 5.08324 11.4352 4.51261 11.4352 3.81212C11.4352 3.11163 12.0046 2.54099 12.7063 2.54099C13.4068 2.54099 13.9774 3.11044 13.9774 3.81212C13.9774 4.51261 13.408 5.08324 12.7063 5.08324Z" fill="#858585"/>
<path d="M19.0606 12.7075H11.2027C10.6774 11.2303 9.28117 10.1665 7.6242 10.1665C5.9671 10.1665 4.57082 11.2303 4.04566 12.7087H1.27112C0.568253 12.7075 0 13.277 0 13.9786C0 14.6803 0.569443 15.2498 1.27112 15.2498H4.04566C4.57104 16.727 5.96723 17.7908 7.6242 17.7908C9.28129 17.7908 10.6776 16.727 11.2027 15.2498H19.0606C19.7623 15.2498 20.3318 14.6803 20.3318 13.9786C20.3306 13.2758 19.7623 12.7063 19.0606 12.7075ZM7.6242 15.2486C6.92371 15.2486 6.35308 14.6779 6.35308 13.9774C6.35308 13.2769 6.92252 12.7063 7.6242 12.7063C8.32469 12.7063 8.89532 13.2758 8.89532 13.9774C8.89413 14.6791 8.32469 15.2486 7.6242 15.2486Z" fill="#858585"/>
</svg>
