<svg width="20" height="19" viewBox="0 0 20 19" fill="none" xmlns="http://www.w3.org/2000/svg">
<g opacity="0.85">
<path d="M3.19442 3.4557C2.80411 4.13143 2.75937 5.27152 2.80411 6.20489C2.8473 7.08272 3.51069 7.80473 4.3808 7.9189L8.51076 8.46195C10.1152 8.6733 11.1736 6.84051 10.1877 5.55693L7.65145 2.25235C7.11611 1.55502 6.1596 1.34058 5.37897 1.74324C4.55051 2.17058 3.58474 2.77997 3.19442 3.4557Z" fill="url(#paint0_linear_300_150)"/>
</g>
<g opacity="0.6">
<path d="M7.83663 0.36395C7.27353 0.689471 6.76133 1.45776 6.38336 2.16435C5.96219 2.95115 6.16737 3.92618 6.8755 4.46923L9.38093 6.3915C10.6645 7.37578 12.4973 6.31745 12.2859 4.71453L11.874 1.58273C11.7568 0.697186 11.0163 0.0322565 10.123 0.00448684C9.32231 -0.0186545 8.39974 0.0399705 7.83663 0.36395Z" fill="url(#paint1_linear_300_150)"/>
</g>
<g opacity="0.45">
<path d="M12.8581 0.012207C12.3151 0.012207 11.6332 0.330015 11.0469 0.680221C10.2802 1.13842 9.97779 2.09802 10.3187 2.92339L11.1796 5.00148C11.7982 6.49641 13.9149 6.49641 14.5351 5.00148L15.3959 2.92339C15.7369 2.09802 15.4345 1.13842 14.6678 0.680221C14.0831 0.330015 13.4012 0.012207 12.8581 0.012207Z" fill="url(#paint2_linear_300_150)"/>
</g>
<g opacity="0.3">
<path d="M16.9218 1.9899C16.5485 1.77391 15.9792 1.70295 15.4284 1.69523C14.512 1.68289 13.733 2.36633 13.6126 3.27502L13.4259 4.68818C13.2146 6.29265 15.0474 7.35098 16.331 6.36516L17.4618 5.49813C18.19 4.93965 18.3905 3.92452 17.9215 3.13617C17.6423 2.66254 17.2967 2.20589 16.9218 1.9899Z" fill="url(#paint3_linear_300_150)"/>
</g>
<g opacity="0.2">
<path d="M19.1997 5.40098C19.0362 5.11711 18.7168 4.85021 18.3651 4.62188C17.5736 4.10814 16.5169 4.29636 15.9429 5.0446L15.5295 5.58302C14.5452 6.86659 15.6035 8.69939 17.2065 8.48803L17.8806 8.4001C18.8171 8.27667 19.5083 7.45593 19.4589 6.5133C19.4342 6.09521 19.3632 5.68484 19.1997 5.40098Z" fill="url(#paint4_linear_300_150)"/>
</g>
<g opacity="0.2">
<path d="M19.4565 9.06192C19.4565 8.83514 19.3809 8.57596 19.2683 8.31523C18.8795 7.41426 17.8242 7.00851 16.9171 7.3834C15.4222 8.00205 15.4222 10.1187 16.9171 10.7389C17.8242 11.1138 18.8779 10.708 19.2683 9.80708C19.3793 9.54789 19.4565 9.28871 19.4565 9.06192Z" fill="url(#paint5_linear_300_150)"/>
</g>
<g opacity="0.2">
<path d="M19.1992 12.6952C19.3628 12.4113 19.4337 12.001 19.4569 11.5813C19.5062 10.6387 18.8151 9.81797 17.8786 9.69455L17.2044 9.60661C15.6 9.39525 14.5416 11.228 15.5275 12.5116L15.9409 13.05C16.5164 13.7998 17.5716 13.988 18.3631 13.4728C18.7163 13.246 19.0357 12.9791 19.1992 12.6952Z" fill="url(#paint6_linear_300_150)"/>
</g>
<g opacity="0.3">
<path d="M16.9222 16.1062C17.2956 15.8902 17.6427 15.432 17.9235 14.9599C18.3925 14.1715 18.1904 13.1564 17.4638 12.5979L16.3329 11.7309C15.0493 10.7466 13.2165 11.805 13.4279 13.4079L13.6146 14.821C13.7349 15.7297 14.5125 16.4132 15.4304 16.4008C15.9796 16.3931 16.5489 16.3222 16.9222 16.1062Z" fill="url(#paint7_linear_300_150)"/>
</g>
<g opacity="0.45">
<path d="M12.8585 18.0734C13.4016 18.0734 14.0835 17.7556 14.6697 17.4053C15.4365 16.9471 15.7389 15.9876 15.3979 15.1622L14.537 13.0841C13.9184 11.5892 11.8017 11.5892 11.1816 13.0841L10.3207 15.1622C9.97974 15.9876 10.2821 16.9471 11.0489 17.4053C11.6336 17.754 12.3155 18.0734 12.8585 18.0734Z" fill="url(#paint8_linear_300_150)"/>
</g>
<g opacity="0.6">
<path d="M7.83663 17.7602C8.39974 18.0857 9.32231 18.1443 10.123 18.1181C11.0147 18.0903 11.7568 17.4239 11.874 16.5399L12.2859 13.4081C12.4973 11.8036 10.6645 10.7453 9.38093 11.7311L6.8755 13.6534C6.16737 14.1964 5.96219 15.1714 6.38336 15.9582C6.76133 16.6648 7.27353 17.4347 7.83663 17.7602Z" fill="url(#paint9_linear_300_150)"/>
</g>
<g opacity="0.85">
<path d="M3.19445 14.6143C3.58477 15.2901 4.549 15.8994 5.38054 16.3268C6.16272 16.7294 7.11769 16.515 7.65302 15.8177L10.1893 12.5131C11.1736 11.2295 10.1153 9.39672 8.51234 9.60808L4.38238 10.1511C3.51072 10.2653 2.84734 10.9873 2.80568 11.8651C2.7594 12.797 2.80568 13.9386 3.19445 14.6143Z" fill="url(#paint10_linear_300_150)"/>
</g>
<g opacity="0.9">
<path d="M0.460938 9.03429C0.460938 9.95532 1.12741 11.1648 1.71829 12.0581C2.19808 12.7832 3.12374 13.0671 3.92751 12.7338L8.80879 10.7113C10.3037 10.0926 10.3037 7.97596 8.80879 7.35577L3.92751 5.33322C3.12374 4.99998 2.19808 5.28385 1.71829 6.00895C1.12741 6.90375 0.460938 8.11327 0.460938 9.03429Z" fill="url(#paint11_linear_300_150)"/>
</g>
<defs>
<linearGradient id="paint0_linear_300_150" x1="9.5302" y1="2.53049" x2="1.82174" y2="10.8135" gradientUnits="userSpaceOnUse">
<stop stop-color="#B3C2CB"/>
<stop offset="1" stop-color="#EA8E87"/>
</linearGradient>
<linearGradient id="paint1_linear_300_150" x1="10.03" y1="2.99555" x2="2.32158" y2="11.2786" gradientUnits="userSpaceOnUse">
<stop stop-color="#B3C2CB"/>
<stop offset="1" stop-color="#EA8E87"/>
</linearGradient>
<linearGradient id="paint2_linear_300_150" x1="11.4506" y1="4.31779" x2="3.74218" y2="12.6008" gradientUnits="userSpaceOnUse">
<stop stop-color="#B3C2CB"/>
<stop offset="1" stop-color="#EA8E87"/>
</linearGradient>
<linearGradient id="paint3_linear_300_150" x1="13.5612" y1="6.28171" x2="5.85271" y2="14.5647" gradientUnits="userSpaceOnUse">
<stop stop-color="#B3C2CB"/>
<stop offset="1" stop-color="#EA8E87"/>
</linearGradient>
<linearGradient id="paint4_linear_300_150" x1="15.7261" y1="8.2958" x2="8.01764" y2="16.5788" gradientUnits="userSpaceOnUse">
<stop stop-color="#B3C2CB"/>
<stop offset="1" stop-color="#EA8E87"/>
</linearGradient>
<linearGradient id="paint5_linear_300_150" x1="17.1185" y1="9.59242" x2="9.41003" y2="17.8754" gradientUnits="userSpaceOnUse">
<stop stop-color="#B3C2CB"/>
<stop offset="1" stop-color="#EA8E87"/>
</linearGradient>
<linearGradient id="paint6_linear_300_150" x1="18.2093" y1="10.6073" x2="10.5008" y2="18.8903" gradientUnits="userSpaceOnUse">
<stop stop-color="#B3C2CB"/>
<stop offset="1" stop-color="#EA8E87"/>
</linearGradient>
<linearGradient id="paint7_linear_300_150" x1="18.437" y1="10.819" x2="10.7286" y2="19.102" gradientUnits="userSpaceOnUse">
<stop stop-color="#B3C2CB"/>
<stop offset="1" stop-color="#EA8E87"/>
</linearGradient>
<linearGradient id="paint8_linear_300_150" x1="17.6724" y1="10.1077" x2="9.96396" y2="18.3907" gradientUnits="userSpaceOnUse">
<stop stop-color="#B3C2CB"/>
<stop offset="1" stop-color="#EA8E87"/>
</linearGradient>
<linearGradient id="paint9_linear_300_150" x1="15.8273" y1="8.39081" x2="8.11886" y2="16.6738" gradientUnits="userSpaceOnUse">
<stop stop-color="#B3C2CB"/>
<stop offset="1" stop-color="#EA8E87"/>
</linearGradient>
<linearGradient id="paint10_linear_300_150" x1="12.712" y1="5.49143" x2="5.00355" y2="13.7744" gradientUnits="userSpaceOnUse">
<stop stop-color="#B3C2CB"/>
<stop offset="1" stop-color="#EA8E87"/>
</linearGradient>
<linearGradient id="paint11_linear_300_150" x1="10.2047" y1="3.15795" x2="2.49625" y2="11.4409" gradientUnits="userSpaceOnUse">
<stop stop-color="#B3C2CB"/>
<stop offset="1" stop-color="#EA8E87"/>
</linearGradient>
</defs>
</svg>
