<svg width="19" height="19" viewBox="0 0 19 19" fill="none" xmlns="http://www.w3.org/2000/svg">
<path fill-rule="evenodd" clip-rule="evenodd" d="M15.5823 4.56508C15.5823 5.18756 15.0777 5.69205 14.4553 5.69205C13.833 5.69205 13.3284 5.18756 13.3284 4.56508C13.3284 3.94261 13.833 3.43811 14.4553 3.43811C15.0778 3.43811 15.5823 3.94261 15.5823 4.56508ZM9.44221 12.7086C7.71331 12.7086 6.31178 11.3071 6.31178 9.5782C6.31178 7.84929 7.71331 6.44777 9.44221 6.44777C11.1711 6.44777 12.5726 7.84929 12.5726 9.5782C12.5726 11.3071 11.1711 12.7086 9.44221 12.7086ZM9.44221 4.75555C6.77871 4.75555 4.61957 6.9147 4.61957 9.5782C4.61957 12.2417 6.77871 14.4008 9.44221 14.4008C12.1057 14.4008 14.2649 12.2417 14.2649 9.5782C14.2649 6.9147 12.1057 4.75555 9.44221 4.75555ZM9.44221 1.87899C11.9499 1.87899 12.2469 1.88852 13.2371 1.93372C14.1527 1.97554 14.6501 2.12845 14.981 2.25714C15.4193 2.4275 15.7321 2.63103 16.0608 2.95973C16.3895 3.28829 16.5931 3.60114 16.7634 4.0396C16.892 4.3705 17.045 4.86781 17.0868 5.78347C17.132 6.77383 17.1416 7.07083 17.1416 9.57849C17.1416 12.0862 17.132 12.3832 17.0868 13.3734C17.045 14.289 16.8921 14.7863 16.7634 15.1172C16.5931 15.5556 16.3895 15.8684 16.0608 16.1971C15.7323 16.5258 15.4194 16.7293 14.981 16.8997C14.6501 17.0282 14.1527 17.1813 13.2371 17.2231C12.2469 17.2683 11.9499 17.2779 9.44221 17.2779C6.93441 17.2779 6.6374 17.2683 5.64719 17.2231C4.73153 17.1813 4.23422 17.0284 3.90332 16.8997C3.46501 16.7293 3.15215 16.5258 2.82345 16.1971C2.4949 15.8686 2.29122 15.5557 2.12086 15.1172C1.99231 14.7863 1.83926 14.289 1.79744 13.3734C1.75224 12.383 1.74271 12.086 1.74271 9.57849C1.74271 7.07083 1.75224 6.77383 1.79744 5.78347C1.83926 4.86781 1.99217 4.3705 2.12086 4.0396C2.29122 3.60129 2.49475 3.28843 2.82345 2.95973C3.15201 2.63103 3.46486 2.4275 3.90332 2.25714C4.23422 2.12859 4.73153 1.97554 5.64719 1.93372C6.63755 1.88852 6.93455 1.87899 9.44221 1.87899ZM9.44221 0.186768C6.89171 0.186768 6.57181 0.197626 5.57015 0.243263C4.57055 0.288899 3.88777 0.447673 3.29053 0.679818C2.6729 0.919739 2.14918 1.24096 1.62707 1.76306C1.10497 2.28517 0.783753 2.80888 0.543831 3.42652C0.311687 4.0239 0.152913 4.70654 0.107277 5.70614C0.0616401 6.7078 0.0507812 7.02769 0.0507812 9.5782C0.0507812 12.1287 0.0616401 12.4486 0.107277 13.4503C0.152913 14.4499 0.311687 15.1325 0.543831 15.7299C0.783753 16.3475 1.10497 16.8712 1.62707 17.3933C2.14918 17.9154 2.6729 18.2365 3.29053 18.4766C3.88791 18.7087 4.57055 18.8675 5.57015 18.9131C6.57181 18.9588 6.89171 18.9696 9.44221 18.9696C11.9927 18.9696 12.3126 18.9588 13.3143 18.9131C14.3139 18.8675 14.9965 18.7087 15.5939 18.4766C16.2115 18.2365 16.7352 17.9154 17.2574 17.3933C17.7795 16.8712 18.1005 16.3475 18.3406 15.7299C18.5727 15.1325 18.7315 14.4499 18.7771 13.4503C18.8228 12.4486 18.8336 12.1287 18.8336 9.5782C18.8336 7.02769 18.8228 6.7078 18.7771 5.70614C18.7315 4.70654 18.5727 4.0239 18.3406 3.42652C18.1005 2.80888 17.7795 2.28517 17.2574 1.76306C16.7352 1.24096 16.2115 0.919886 15.5939 0.679818C14.9965 0.447673 14.3139 0.288899 13.3143 0.243263C12.3126 0.197626 11.9927 0.186768 9.44221 0.186768Z" fill="url(#paint0_radial_300_135)"/>
<defs>
<radialGradient id="paint0_radial_300_135" cx="0" cy="0" r="1" gradientUnits="userSpaceOnUse" gradientTransform="translate(2.85517 19.0348) scale(23.9998)">
<stop stop-color="#FFB140"/>
<stop offset="0.2559" stop-color="#FF5445"/>
<stop offset="0.599" stop-color="#FC2B82"/>
<stop offset="1" stop-color="#8E40B7"/>
</radialGradient>
</defs>
</svg>
