<svg width="18" height="19" viewBox="0 0 18 19" fill="none" xmlns="http://www.w3.org/2000/svg">
<path d="M5.45933 15.7557V0H3.54545V15.7557L1.34928 13.5802L0 14.9198L3.82775 18.7197C4.00639 18.8982 4.24901 18.9989 4.50239 19C4.62865 18.9998 4.7537 18.9756 4.87081 18.9287C4.98328 18.8758 5.08535 18.8035 5.17225 18.715L9 14.915L7.65072 13.5755L5.45933 15.7557Z" fill="#CCCCCC"/>
<path d="M14.1722 0.280476C14.0387 0.147062 13.8684 0.055984 13.6827 0.0187786C13.497 -0.0184269 13.3044 -8.58416e-05 13.1292 0.0714785C13.0167 0.124391 12.9146 0.196771 12.8278 0.285226L9 4.08518L10.3493 5.42466L12.5407 3.24444V19H14.4545V3.24444L16.6507 5.41991L18 4.08043L14.1722 0.280476Z" fill="#CCCCCC"/>
</svg>
